<svg enable-background="new 0 0 512 512" viewBox="0 0 512 512" xmlns="http://www.w3.org/2000/svg"><path d="m508.333 32.666c0-16.316-13.349-29.666-29.665-29.666h-449.636c-14.684 0-26.699 12.015-26.699 26.699v452.602c0 14.684 12.015 26.699 26.699 26.699h449.635c16.316 0 29.666-13.35 29.666-29.666z" fill="#597b91"/><path d="m478.668 488.915h-449.636c-14.684 0-26.699-12.015-26.699-26.699v20.085c0 14.684 12.015 26.699 26.699 26.699h449.635c16.316 0 29.666-13.35 29.666-29.666v-20.085c0 16.316-13.349 29.666-29.665 29.666z" fill="#2b5770"/><path d="m419.73 357.444-148.234-223.447c-7.356-11.088-23.636-11.088-30.992 0l-148.234 223.447c-8.2 12.361.663 28.876 15.496 28.876h296.468c14.833-.001 23.696-16.516 15.496-28.876z" fill="#f9f9f7"/></svg>